mtllib super-missile.mtl
v 0.055632 0.153688 -0.496413
v 0.063264 0.141856 -0.496423
v 0.068441 0.128761 -0.496435
v 0.070964 0.114908 -0.496448
v 0.070736 0.100830 -0.496461
v 0.067765 0.087066 -0.496475
v 0.062167 0.074146 -0.496487
v 0.054156 0.062567 -0.496499
v 0.044039 0.052773 -0.496509
v 0.032206 0.045141 -0.496518
v 0.019112 0.039964 -0.496524
v 0.005259 0.037441 -0.496527
v -0.008819 0.037669 -0.496529
v -0.022583 0.040640 -0.496527
v -0.035503 0.046238 -0.496523
v -0.047082 0.054249 -0.496517
v -0.056876 0.064366 -0.496508
v -0.064508 0.076199 -0.496498
v -0.069685 0.089293 -0.496486
v -0.072208 0.103146 -0.496473
v -0.071980 0.117224 -0.496459
v -0.069010 0.130988 -0.496446
v -0.063411 0.143908 -0.496434
v -0.055400 0.155487 -0.496422
v -0.045283 0.165281 -0.496412
v -0.033450 0.172913 -0.496403
v -0.020356 0.178090 -0.496397
v -0.006503 0.180613 -0.496393
v 0.007575 0.180385 -0.496392
v 0.021339 0.177415 -0.496394
v 0.034259 0.171816 -0.496398
v 0.045838 0.163805 -0.496404
v 0.055622 0.153626 -0.296388
v 0.063254 0.141793 -0.296398
v 0.068431 0.128699 -0.296410
v 0.070954 0.114846 -0.296423
v 0.070726 0.100767 -0.296436
v 0.067755 0.087003 -0.296449
v 0.062157 0.074084 -0.296462
v 0.054146 0.062504 -0.296474
v 0.044029 0.052711 -0.296484
v 0.032196 0.045079 -0.296492
v 0.019102 0.039902 -0.296499
v 0.005249 0.037379 -0.296502
v -0.008829 0.037607 -0.296503
v -0.022593 0.040577 -0.296502
v -0.035513 0.046176 -0.296498
v -0.047092 0.054187 -0.296491
v -0.056886 0.064303 -0.296483
v -0.064518 0.076136 -0.296472
v -0.069695 0.089230 -0.296461
v -0.072218 0.103083 -0.296448
v -0.071990 0.117162 -0.296434
v -0.069020 0.130925 -0.296421
v -0.063421 0.143845 -0.296408
v -0.055410 0.155424 -0.296397
v -0.045294 0.165218 -0.296386
v -0.033461 0.172850 -0.296378
v -0.020367 0.178028 -0.296372
v -0.006514 0.180551 -0.296368
v 0.007565 0.180323 -0.296367
v 0.021329 0.177352 -0.296368
v 0.034248 0.171754 -0.296373
v 0.045828 0.163743 -0.296379
v -0.000622 0.109027 -0.496460
v 0.045828 0.163743 -0.296379
v 0.034248 0.171754 -0.296373
v 0.021329 0.177352 -0.296368
v 0.007565 0.180323 -0.296367
v -0.006514 0.180551 -0.296368
v -0.020367 0.178028 -0.296372
v -0.033461 0.172850 -0.296378
v -0.045294 0.165218 -0.296386
v -0.055410 0.155424 -0.296397
v -0.063421 0.143845 -0.296408
v -0.069020 0.130925 -0.296421
v -0.071990 0.117162 -0.296434
v -0.072218 0.103083 -0.296448
v -0.069695 0.089230 -0.296461
v -0.064518 0.076136 -0.296472
v -0.056886 0.064303 -0.296483
v -0.047092 0.054187 -0.296491
v -0.035513 0.046176 -0.296498
v -0.022593 0.040577 -0.296502
v -0.008829 0.037607 -0.296503
v 0.005249 0.037379 -0.296502
v 0.019102 0.039902 -0.296499
v 0.032196 0.045079 -0.296492
v 0.044029 0.052711 -0.296484
v 0.054146 0.062504 -0.296474
v 0.062157 0.074084 -0.296462
v 0.067755 0.087003 -0.296449
v 0.070726 0.100767 -0.296436
v 0.070954 0.114846 -0.296423
v 0.068431 0.128699 -0.296410
v 0.063254 0.141793 -0.296398
v 0.055622 0.153626 -0.296388
v 0.055589 0.153420 0.363349
v 0.063221 0.141587 0.363339
v 0.068398 0.128493 0.363327
v 0.070921 0.114640 0.363314
v 0.070693 0.100561 0.363301
v 0.067723 0.086797 0.363288
v 0.062124 0.073878 0.363275
v 0.054113 0.062298 0.363263
v 0.043996 0.052505 0.363253
v 0.032164 0.044873 0.363245
v 0.019069 0.039696 0.363238
v 0.005217 0.037173 0.363235
v -0.008862 0.037401 0.363234
v -0.022626 0.040371 0.363235
v -0.035546 0.045970 0.363239
v -0.047125 0.053981 0.363246
v -0.056919 0.064097 0.363254
v -0.064551 0.075930 0.363265
v -0.069728 0.089024 0.363277
v -0.072251 0.102877 0.363289
v -0.072023 0.116956 0.363303
v -0.069053 0.130719 0.363316
v -0.063454 0.143639 0.363329
v -0.055443 0.155218 0.363340
v -0.045326 0.165012 0.363351
v -0.033494 0.172644 0.363359
v -0.020400 0.177822 0.363365
v -0.006547 0.180345 0.363369
v 0.007532 0.180117 0.363370
v 0.021296 0.177146 0.363369
v 0.034215 0.171548 0.363364
v 0.045795 0.163537 0.363358
v -0.000674 0.108702 0.544870
v 0.004995 0.235603 -0.447016
v 0.004989 0.235571 -0.345640
v -0.002140 0.235719 -0.447016
v -0.002146 0.235687 -0.345640
v 0.100774 0.034532 -0.447025
v 0.100769 0.034501 -0.345991
v 0.104821 0.040381 -0.447019
v 0.104816 0.040350 -0.345985
v -0.102959 0.047233 -0.446976
v -0.102964 0.047201 -0.346056
v -0.099109 0.041263 -0.446981
v -0.099114 0.041231 -0.346062
vt 0.000000 0.000000
vt 1.000000 0.000000
vt 1.000000 1.000000
vt 0.000000 1.000000
vt 0.539657 0.414427
vt 0.528190 0.408307
vt 0.529013 0.406902
vt 0.540772 0.413201
vt 0.531097 0.513278
vt 0.541747 0.507612
vt 0.542631 0.508877
vt 0.531630 0.514645
vt 0.484478 0.513391
vt 0.498700 0.517094
vt 0.363281 0.892780
vt 0.455415 0.909831
vt 0.509591 0.518559
vt 0.549409 0.910716
vt 0.520099 0.517688
vt 0.641858 0.895291
vt 0.728868 0.864635
vt 0.807581 0.818452
vt 0.552237 0.500775
vt 0.876822 0.758512
vt 0.559987 0.490849
vt 0.932918 0.686968
vt 0.565287 0.479569
vt 0.973370 0.606178
vt 0.567886 0.467451
vt 0.996175 0.519025
vt 0.567670 0.455055
vt 1.000000 0.428805
vt 0.564658 0.442930
vt 0.984291 0.339062
vt 0.558987 0.431601
vt 0.949321 0.253443
vt 0.550909 0.421550
vt 0.896213 0.175522
vt 0.826906 0.108606
vt 0.744075 0.055596
vt 0.516134 0.402907
vt 0.651033 0.018837
vt 0.502683 0.401367
vt 0.551583 0.000000
vt 0.489226 0.402316
vt 0.449854 0.000000
vt 0.476296 0.405615
vt 0.350121 0.018940
vt 0.464324 0.410577
vt 0.256600 0.056104
vt 0.453552 0.416806
vt 0.172844 0.109038
vt 0.444446 0.424848
vt 0.103085 0.176034
vt 0.437486 0.434360
vt 0.049947 0.253970
vt 0.433023 0.444751
vt 0.015256 0.339370
vt 0.431219 0.455086
vt 0.000000 0.428565
vt 0.431144 0.463850
vt 0.004506 0.518090
vt 0.433273 0.472312
vt 0.028141 0.604313
vt 0.437767 0.481578
vt 0.069359 0.684140
vt 0.445213 0.490789
vt 0.126084 0.754811
vt 0.455820 0.499409
vt 0.195788 0.814139
vt 0.469296 0.507544
vt 0.275809 0.860563
vt 0.470374 0.505940
vt 0.485282 0.511715
vt 0.457070 0.498061
vt 0.439090 0.480951
vt 0.446516 0.489801
vt 0.434520 0.471987
vt 0.432344 0.463799
vt 0.432515 0.455281
vt 0.434435 0.445214
vt 0.438823 0.435121
vt 0.445600 0.425871
vt 0.454461 0.418039
vt 0.464993 0.411944
vt 0.476772 0.407128
vt 0.489410 0.403886
vt 0.502527 0.402947
vt 0.515636 0.404432
vt 0.549548 0.422543
vt 0.557438 0.432320
vt 0.562986 0.443342
vt 0.565947 0.455142
vt 0.566187 0.467208
vt 0.563689 0.479008
vt 0.558566 0.489997
vt 0.551051 0.499683
vt 0.519908 0.516399
vt 0.509721 0.517317
vt 0.499157 0.515741
vt 0.888198 0.818876
vt 0.818559 0.888455
vt 0.500025 0.500268
vt 0.736694 0.943116
vt 0.645745 0.980762
vt 0.549204 0.999953
vt 0.450774 0.999953
vt 0.354232 0.980757
vt 0.263281 0.943105
vt 0.181413 0.888437
vt 0.111773 0.818848
vt 0.057036 0.737006
vt 0.019310 0.646051
vt 0.000050 0.549472
vt 0.000000 0.450980
vt 0.019171 0.354361
vt 0.056831 0.263330
vt 0.111537 0.181392
vt 0.181188 0.111700
vt 0.263107 0.056940
vt 0.354143 0.019221
vt 0.450792 0.000000
vt 0.549334 0.000013
vt 0.645976 0.019261
vt 0.736997 0.057002
vt 0.818897 0.111777
vt 0.888526 0.181478
vt 0.943210 0.263419
vt 0.980849 0.354447
vt 1.000000 0.451058
vt 0.999936 0.549538
vt 0.980667 0.646103
vt 0.942936 0.737046
vn 0.718470 0.695557 0.000253
vn 0.718466 0.695562 0.000253
vn 0.568961 0.822364 0.000285
vn 0.568967 0.822360 0.000285
vn 0.397592 0.917562 0.000307
vn 0.397601 0.917558 0.000306
vn 0.210946 0.977498 0.000316
vn 0.210955 0.977496 0.000315
vn -0.179175 0.983817 0.000298
vn -0.179184 0.983816 0.000298
vn -0.367666 0.929958 0.000272
vn -0.367673 0.929955 0.000272
vn -0.542026 0.840362 0.000236
vn -0.542033 0.840357 0.000235
vn -0.695559 0.718469 0.000190
vn -0.695563 0.718465 0.000189
vn -0.822359 0.568968 0.000137
vn -0.822363 0.568963 0.000136
vn -0.917559 0.397600 0.000079
vn -0.917561 0.397594 0.000078
vn -0.977496 0.210954 0.000017
vn -0.977497 0.210948 0.000017
vn -0.999869 0.016200 -0.000045
vn -0.999869 0.016196 -0.000045
vn -0.983817 -0.179176 -0.000105
vn -0.983816 -0.179180 -0.000105
vn -0.929958 -0.367666 -0.000161
vn -0.929956 -0.367670 -0.000161
vn -0.718470 -0.695558 -0.000253
vn -0.718467 -0.695561 -0.000253
vn -0.568967 -0.822360 -0.000285
vn -0.568965 -0.822362 -0.000285
vn -0.397600 -0.917559 -0.000306
vn -0.397598 -0.917559 -0.000306
vn -0.210953 -0.977496 -0.000316
vn -0.210952 -0.977496 -0.000316
vn -0.016199 -0.999869 -0.000313
vn 0.179178 -0.983817 -0.000298
vn 0.179175 -0.983817 -0.000298
vn 0.367666 -0.929958 -0.000272
vn 0.367668 -0.929957 -0.000272
vn 0.542028 -0.840360 -0.000235
vn 0.695559 -0.718469 -0.000190
vn 0.917558 -0.397601 -0.000078
vn 0.917559 -0.397600 -0.000078
vn 0.977496 -0.210955 -0.000017
vn 0.977496 -0.210953 -0.000017
vn 0.999869 -0.016201 0.000045
vn 0.999869 -0.016200 0.000045
vn 0.983818 0.179174 0.000105
vn 0.983817 0.179178 0.000105
vn 0.929958 0.367666 0.000161
vn 0.929958 0.367667 0.000161
vn 0.840362 0.542026 0.000211
vn 0.840360 0.542029 0.000211
vn 0.000000 0.000000 0.000000
vn 0.397592 0.917562 0.000306
vn 0.210945 0.977498 0.000316
vn 0.016192 0.999869 0.000313
vn 0.016193 0.999869 0.000313
vn -0.695563 0.718465 0.000190
vn -0.822363 0.568963 0.000137
vn -0.977497 0.210949 0.000017
vn -0.999869 0.016195 -0.000045
vn -0.983817 -0.179179 -0.000105
vn -0.840359 -0.542030 -0.000211
vn -0.397598 -0.917560 -0.000306
vn 0.822360 -0.568968 -0.000137
vn 0.983817 0.179174 0.000105
vn 0.840362 0.542025 0.000211
vn -0.840361 -0.542027 -0.000211
vn -0.603639 -0.388727 -0.696068
vn -0.603637 -0.388730 -0.696069
vn -0.603543 -0.389894 0.695499
vn -0.603540 -0.389900 0.695498
vn 0.479698 -0.877434 -0.000251
vn -0.601509 0.798866 0.000221
vn 0.822360 -0.568967 -0.000137
vn 0.554252 -0.382725 -0.739139
vn 0.554256 -0.382720 -0.739138
vn 0.553932 -0.383996 0.738719
vn 0.553930 -0.384001 0.738719
vn 0.620476 0.784225 0.000276
vn -0.515122 -0.857117 -0.000294
vn 0.016201 0.999869 0.000314
vn 0.016187 0.999869 0.000313
vn 0.010864 0.666820 -0.745139
vn 0.010855 0.666820 -0.745140
vn 0.010722 0.665831 0.746026
vn 0.010717 0.665832 0.746025
vn -0.996879 0.078950 -0.000028
vn 0.998913 0.046623 0.000068
vn 0.668594 0.646973 0.366617
vn 0.529474 0.764997 0.366656
vn 0.369998 0.853607 0.366682
vn 0.196287 0.909399 0.366695
vn 0.015031 0.930221 0.366692
vn -0.166792 0.915275 0.366676
vn -0.342215 0.865135 0.366647
vn -0.504480 0.781730 0.366604
vn -0.647340 0.668275 0.366551
vn -0.765320 0.529124 0.366489
vn -0.853875 0.369639 0.366421
vn -0.909612 0.195944 0.366349
vn -0.930390 0.014723 0.366275
vn -0.915416 -0.167059 0.366204
vn -0.865268 -0.342425 0.366137
vn -0.781879 -0.504631 0.366078
vn -0.668453 -0.647452 0.366027
vn -0.529352 -0.765401 0.365988
vn -0.369914 -0.853953 0.365962
vn -0.196286 -0.909699 0.365949
vn -0.015103 -0.930511 0.365952
vn 0.166656 -0.915584 0.365968
vn 0.342006 -0.865493 0.365997
vn 0.504229 -0.782156 0.366040
vn 0.647080 -0.668777 0.366093
vn 0.765077 -0.529705 0.366155
vn 0.853682 -0.370281 0.366223
vn 0.909484 -0.196636 0.366295
vn 0.930342 -0.015422 0.366369
vn 0.915444 0.166385 0.366440
vn 0.865360 0.341796 0.366507
vn 0.782014 0.504066 0.366567
vn 0.000094 0.000947 -1.000000
vn 0.000098 0.000940 -1.000000
vn 0.000096 0.000947 -1.000000
vn 0.000096 0.000941 -1.000000
vn 0.000098 0.000949 -1.000000
vn 0.000095 0.000943 -1.000000
vn 0.000096 0.000944 -1.000000
vn 0.000095 0.000944 -1.000000
vn 0.000100 0.000944 -1.000000
vn 0.000091 0.000945 -1.000000
vn 0.000103 0.000941 -1.000000
vn 0.000101 0.000942 -1.000000
vn 0.000093 0.000950 -1.000000
vn 0.000097 0.000943 -1.000000
vn 0.000095 0.000937 -1.000000
vn 0.000098 0.000945 -1.000000
vn 0.000096 0.000942 -1.000000
vn 0.000099 0.000945 -1.000000
vn 0.000093 0.000941 -1.000000
vn 0.000099 0.000943 -1.000000
vn 0.000096 0.000943 -1.000000
vn 0.000104 0.000942 -1.000000
vn 0.000096 0.000945 -1.000000
vn 0.000090 0.000948 -1.000000
vn 0.000103 0.000936 -1.000000
usemtl None_red.tga
s off
f 33/1/1 1/2/1 32/3/1
f 33/1/2 32/3/2 64/4/2
f 31/1/3 63/2/3 64/3/3
f 31/1/4 64/3/4 32/4/4
f 30/1/5 62/2/5 63/3/5
f 30/1/6 63/3/6 31/4/6
f 29/1/7 61/2/7 62/3/7
f 29/1/8 62/3/8 30/4/8
f 27/1/9 59/2/9 28/4/9
f 59/2/10 60/3/10 28/4/10
f 26/1/11 58/2/11 27/4/11
f 58/2/12 59/3/12 27/4/12
f 25/1/13 57/2/13 26/4/13
f 57/2/14 58/3/14 26/4/14
f 24/1/15 56/2/15 25/4/15
f 56/2/16 57/3/16 25/4/16
f 23/1/17 55/2/17 24/4/17
f 55/2/18 56/3/18 24/4/18
f 22/1/19 54/2/19 23/4/19
f 54/2/20 55/3/20 23/4/20
f 21/1/21 53/2/21 22/4/21
f 53/2/22 54/3/22 22/4/22
f 20/1/23 52/2/23 21/4/23
f 52/2/24 53/3/24 21/4/24
f 19/1/25 51/2/25 20/4/25
f 51/2/26 52/3/26 20/4/26
f 18/1/27 50/2/27 19/4/27
f 50/2/28 51/3/28 19/4/28
f 16/1/29 48/2/29 17/4/29
f 48/2/30 49/3/30 17/4/30
f 15/1/31 47/2/31 16/4/31
f 47/2/32 48/3/32 16/4/32
f 14/1/33 46/2/33 15/4/33
f 46/2/34 47/3/34 15/4/34
f 13/1/35 45/2/35 14/4/35
f 45/2/36 46/3/36 14/4/36
f 12/1/37 44/2/37 45/3/37
f 12/1/37 45/3/37 13/4/37
f 11/1/38 43/2/38 44/3/38
f 11/1/39 44/3/39 12/4/39
f 10/1/40 42/2/40 43/3/40
f 10/1/41 43/3/41 11/4/41
f 9/1/42 41/2/42 42/3/42
f 9/1/42 42/3/42 10/4/42
f 8/1/43 40/2/43 41/3/43
f 8/1/43 41/3/43 9/4/43
f 6/1/44 38/2/44 39/3/44
f 6/1/45 39/3/45 7/4/45
f 5/1/46 37/2/46 38/3/46
f 5/1/47 38/3/47 6/4/47
f 4/1/48 36/2/48 37/3/48
f 4/1/49 37/3/49 5/4/49
f 3/1/50 35/2/50 36/3/50
f 3/1/51 36/3/51 4/4/51
f 2/1/52 34/2/52 35/3/52
f 2/1/53 35/3/53 3/4/53
f 1/1/54 33/2/54 34/3/54
f 1/1/55 34/3/55 2/4/55
usemtl None_brushed-metal.tga
f 51/5/56 50/6/56 80/7/56
f 51/5/56 80/7/56 79/8/56
f 61/9/56 60/10/56 70/11/56
f 61/9/56 70/11/56 69/12/56
usemtl None_dark-metal.tga
f 97/13/2 66/14/2 98/15/2
f 66/14/2 129/16/2 98/15/2
f 66/14/3 67/17/3 129/16/3
f 67/17/3 128/18/3 129/16/3
f 67/17/57 68/19/57 128/18/57
f 68/19/57 127/20/57 128/18/57
f 68/19/7 69/12/7 127/20/7
f 69/12/58 126/21/58 127/20/58
f 69/12/59 70/11/59 125/22/59
f 69/12/60 125/22/60 126/21/60
f 70/11/10 71/23/10 124/24/10
f 70/11/10 124/24/10 125/22/10
f 71/23/12 72/25/12 123/26/12
f 71/23/12 123/26/12 124/24/12
f 72/25/14 73/27/14 122/28/14
f 72/25/14 122/28/14 123/26/14
f 73/27/61 74/29/61 121/30/61
f 73/27/61 121/30/61 122/28/61
f 74/29/62 75/31/62 120/32/62
f 74/29/62 120/32/62 121/30/62
f 75/31/20 76/33/20 119/34/20
f 75/31/20 119/34/20 120/32/20
f 76/33/22 77/35/22 118/36/22
f 76/33/63 118/36/63 119/34/63
f 77/35/24 78/37/24 117/38/24
f 77/35/64 117/38/64 118/36/64
f 78/37/26 79/8/26 116/39/26
f 78/37/65 116/39/65 117/38/65
f 79/8/28 80/7/28 115/40/28
f 79/8/28 115/40/28 116/39/28
f 80/7/66 81/41/66 114/42/66
f 80/7/66 114/42/66 115/40/66
f 81/41/30 82/43/30 113/44/30
f 81/41/30 113/44/30 114/42/30
f 82/43/32 83/45/32 112/46/32
f 82/43/32 112/46/32 113/44/32
f 83/45/67 84/47/67 111/48/67
f 83/45/67 111/48/67 112/46/67
f 84/47/36 85/49/36 110/50/36
f 84/47/36 110/50/36 111/48/36
f 85/49/37 86/51/37 110/50/37
f 86/51/37 109/52/37 110/50/37
f 86/51/38 87/53/38 109/52/38
f 87/53/38 108/54/38 109/52/38
f 87/53/40 88/55/40 108/54/40
f 88/55/40 107/56/40 108/54/40
f 88/55/42 89/57/42 107/56/42
f 89/57/42 106/58/42 107/56/42
f 89/57/43 90/59/43 106/58/43
f 90/59/43 105/60/43 106/58/43
f 90/59/68 91/61/68 105/60/68
f 91/61/68 104/62/68 105/60/68
f 91/61/44 92/63/44 104/62/44
f 92/63/44 103/64/44 104/62/44
f 92/63/46 93/65/46 103/64/46
f 93/65/46 102/66/46 103/64/46
f 93/65/48 94/67/48 102/66/48
f 94/67/48 101/68/48 102/66/48
f 94/67/69 95/69/69 101/68/69
f 95/69/69 100/70/69 101/68/69
f 95/69/52 96/71/52 100/70/52
f 96/71/52 99/72/52 100/70/52
f 96/71/54 97/13/54 99/72/54
f 97/13/70 98/15/70 99/72/70
f 34/73/56 33/74/56 97/13/56
f 34/73/56 97/13/56 96/71/56
f 35/75/56 34/73/56 96/71/56
f 35/75/56 96/71/56 95/69/56
f 37/76/56 36/77/56 94/67/56
f 37/76/56 94/67/56 93/65/56
f 38/78/56 37/76/56 93/65/56
f 38/78/56 93/65/56 92/63/56
f 39/79/56 38/78/56 92/63/56
f 39/79/56 92/63/56 91/61/56
f 40/80/56 39/79/56 91/61/56
f 40/80/56 91/61/56 90/59/56
f 41/81/56 40/80/56 90/59/56
f 41/81/56 90/59/56 89/57/56
f 42/82/56 41/81/56 89/57/56
f 42/82/56 89/57/56 88/55/56
f 43/83/56 42/82/56 88/55/56
f 43/83/56 88/55/56 87/53/56
f 44/84/56 43/83/56 87/53/56
f 44/84/56 87/53/56 86/51/56
f 45/85/56 44/84/56 86/51/56
f 45/85/56 86/51/56 85/49/56
f 46/86/56 45/85/56 85/49/56
f 46/86/56 85/49/56 84/47/56
f 47/87/56 46/86/56 84/47/56
f 47/87/56 84/47/56 83/45/56
f 48/88/56 47/87/56 83/45/56
f 48/88/56 83/45/56 82/43/56
f 49/89/56 48/88/56 82/43/56
f 49/89/56 82/43/56 81/41/56
f 50/6/56 49/89/56 81/41/56
f 50/6/56 81/41/56 80/7/56
f 52/90/56 51/5/56 79/8/56
f 52/90/56 79/8/56 78/37/56
f 53/91/56 52/90/56 78/37/56
f 53/91/56 78/37/56 77/35/56
f 54/92/56 53/91/56 77/35/56
f 54/92/56 77/35/56 76/33/56
f 55/93/56 54/92/56 76/33/56
f 55/93/56 76/33/56 75/31/56
f 56/94/56 55/93/56 75/31/56
f 56/94/56 75/31/56 74/29/56
f 57/95/56 56/94/56 74/29/56
f 57/95/56 74/29/56 73/27/56
f 58/96/56 57/95/56 73/27/56
f 58/96/56 73/27/56 72/25/56
f 59/97/56 58/96/56 72/25/56
f 59/97/56 72/25/56 71/23/56
f 60/10/56 59/97/56 71/23/56
f 60/10/56 71/23/56 70/11/56
f 62/98/56 61/9/56 69/12/56
f 62/98/56 69/12/56 68/19/56
f 63/99/56 62/98/56 68/19/56
f 63/99/56 68/19/56 67/17/56
f 64/100/56 63/99/56 67/17/56
f 64/100/56 67/17/56 66/14/56
f 33/74/56 64/100/56 66/14/56
f 33/74/56 66/14/56 97/13/56
usemtl None_brushed-metal.tga
f 141/1/71 142/2/71 139/4/71
f 142/2/66 140/3/66 139/4/66
f 18/1/72 17/2/72 141/3/72
f 18/1/73 141/3/73 139/4/73
f 49/1/74 50/2/74 140/3/74
f 49/1/75 140/3/75 142/4/75
f 17/1/76 49/2/76 142/3/76
f 17/1/76 142/3/76 141/4/76
f 50/1/77 18/2/77 140/4/77
f 18/2/77 139/3/77 140/4/77
f 137/1/78 138/2/78 136/3/78
f 137/1/78 136/3/78 135/4/78
f 8/1/79 7/2/79 135/4/79
f 7/2/80 137/3/80 135/4/80
f 39/1/81 40/2/81 138/4/81
f 40/2/82 136/3/82 138/4/82
f 7/1/83 39/2/83 138/3/83
f 7/1/83 138/3/83 137/4/83
f 40/1/84 8/2/84 136/4/84
f 8/2/84 135/3/84 136/4/84
f 133/1/85 134/2/85 131/4/85
f 134/2/86 132/3/86 131/4/86
f 29/1/87 28/2/87 133/3/87
f 29/1/88 133/3/88 131/4/88
f 60/1/89 61/2/89 132/3/89
f 60/1/90 132/3/90 134/4/90
f 28/1/91 60/2/91 133/4/91
f 60/2/91 134/3/91 133/4/91
f 61/1/92 29/2/92 131/3/92
f 61/1/92 131/3/92 132/4/92
f 36/77/56 35/75/56 95/69/56
f 36/77/56 95/69/56 94/67/56
usemtl None_red.tga.001
f 98/101/93 129/102/93 130/103/93
f 129/102/94 128/104/94 130/103/94
f 128/104/95 127/105/95 130/103/95
f 127/105/96 126/106/96 130/103/96
f 126/106/97 125/107/97 130/103/97
f 125/107/98 124/108/98 130/103/98
f 124/108/99 123/109/99 130/103/99
f 123/109/100 122/110/100 130/103/100
f 122/110/101 121/111/101 130/103/101
f 121/111/102 120/112/102 130/103/102
f 120/112/103 119/113/103 130/103/103
f 119/113/104 118/114/104 130/103/104
f 118/114/105 117/115/105 130/103/105
f 117/115/106 116/116/106 130/103/106
f 116/116/107 115/117/107 130/103/107
f 115/117/108 114/118/108 130/103/108
f 114/118/109 113/119/109 130/103/109
f 113/119/110 112/120/110 130/103/110
f 112/120/111 111/121/111 130/103/111
f 111/121/112 110/122/112 130/103/112
f 110/122/113 109/123/113 130/103/113
f 109/123/114 108/124/114 130/103/114
f 108/124/115 107/125/115 130/103/115
f 107/125/116 106/126/116 130/103/116
f 106/126/117 105/127/117 130/103/117
f 105/127/118 104/128/118 130/103/118
f 104/128/119 103/129/119 130/103/119
f 103/129/120 102/130/120 130/103/120
f 102/130/121 101/131/121 130/103/121
f 101/131/122 100/132/122 130/103/122
f 100/132/123 99/133/123 130/103/123
f 99/133/124 98/101/124 130/103/124
usemtl None_red.tga
f 65/1/125 1/2/125 2/3/125
f 65/1/126 2/2/126 3/3/126
f 65/1/127 3/2/127 4/3/127
f 65/1/127 4/2/127 5/3/127
f 65/1/128 5/2/128 6/3/128
f 65/1/129 6/2/129 7/3/129
f 65/1/130 7/2/130 8/3/130
f 65/1/130 8/2/130 9/3/130
f 65/1/131 9/2/131 10/3/131
f 65/1/131 10/2/131 11/3/131
f 65/1/132 11/2/132 12/3/132
f 65/1/133 12/2/133 13/3/133
f 65/1/134 13/2/134 14/3/134
f 65/1/135 14/2/135 15/3/135
f 65/1/136 15/2/136 16/3/136
f 65/1/137 16/2/137 17/3/137
f 65/1/125 17/2/125 18/3/125
f 65/1/131 18/2/131 19/3/131
f 65/1/138 19/2/138 20/3/138
f 65/1/127 20/2/127 21/3/127
f 65/1/139 21/2/139 22/3/139
f 65/1/140 22/2/140 23/3/140
f 65/1/141 23/2/141 24/3/141
f 65/1/142 24/2/142 25/3/142
f 65/1/143 25/2/143 26/3/143
f 65/1/141 26/2/141 27/3/141
f 65/1/144 27/2/144 28/3/144
f 65/1/145 28/2/145 29/3/145
f 65/1/146 29/2/146 30/3/146
f 65/1/147 30/2/147 31/3/147
f 65/1/148 31/2/148 32/3/148
f 32/1/149 1/2/149 65/3/149
