mtllib super-missile.mtl
v 0.055632 -0.043734 0.480197
v 0.063264 -0.031901 0.480200
v 0.068441 -0.018807 0.480204
v 0.070964 -0.004954 0.480208
v 0.070736 0.009125 0.480213
v 0.067765 0.022888 0.480218
v 0.062167 0.035808 0.480222
v 0.054156 0.047387 0.480227
v 0.044039 0.057181 0.480231
v 0.032206 0.064813 0.480235
v 0.019112 0.069990 0.480237
v 0.005259 0.072513 0.480239
v -0.008819 0.072285 0.480241
v -0.022583 0.069315 0.480241
v -0.035503 0.063716 0.480240
v -0.047082 0.055705 0.480239
v -0.056876 0.045588 0.480237
v -0.064508 0.033756 0.480233
v -0.069685 0.020661 0.480230
v -0.072208 0.006809 0.480226
v -0.071980 -0.007270 0.480221
v -0.069010 -0.021034 0.480216
v -0.063411 -0.033954 0.480212
v -0.055400 -0.045533 0.480207
v -0.045283 -0.055327 0.480203
v -0.033450 -0.062959 0.480200
v -0.020356 -0.068136 0.480197
v -0.006503 -0.070659 0.480195
v 0.007575 -0.070431 0.480193
v 0.021339 -0.067460 0.480193
v 0.034259 -0.061862 0.480194
v 0.045838 -0.053850 0.480195
v 0.055622 -0.043793 0.288116
v 0.063254 -0.031960 0.288119
v 0.068431 -0.018866 0.288123
v 0.070954 -0.005013 0.288127
v 0.070726 0.009065 0.288131
v 0.067755 0.022829 0.288136
v 0.062157 0.035749 0.288141
v 0.054146 0.047328 0.288145
v 0.044029 0.057122 0.288149
v 0.032196 0.064754 0.288153
v 0.019102 0.069931 0.288156
v 0.005249 0.072454 0.288158
v -0.008829 0.072226 0.288159
v -0.022593 0.069256 0.288159
v -0.035513 0.063657 0.288159
v -0.047092 0.055646 0.288157
v -0.056886 0.045529 0.288155
v -0.064518 0.033697 0.288152
v -0.069695 0.020602 0.288148
v -0.072218 0.006750 0.288144
v -0.071990 -0.007329 0.288139
v -0.069020 -0.021093 0.288135
v -0.063421 -0.034013 0.288130
v -0.055410 -0.045592 0.288126
v -0.045294 -0.055386 0.288121
v -0.033461 -0.063018 0.288118
v -0.020367 -0.068195 0.288115
v -0.006514 -0.070718 0.288113
v 0.007565 -0.070490 0.288112
v 0.021329 -0.067520 0.288111
v 0.034248 -0.061921 0.288112
v 0.045828 -0.053910 0.288114
v -0.000622 0.000927 0.480217
v 0.045828 -0.053910 0.288114
v 0.034248 -0.061921 0.288112
v 0.021329 -0.067520 0.288111
v 0.007565 -0.070490 0.288112
v -0.006514 -0.070718 0.288113
v -0.020367 -0.068195 0.288115
v -0.033461 -0.063018 0.288118
v -0.045294 -0.055386 0.288121
v -0.055410 -0.045592 0.288126
v -0.063421 -0.034013 0.288130
v -0.069020 -0.021093 0.288135
v -0.071990 -0.007329 0.288139
v -0.072218 0.006750 0.288144
v -0.069695 0.020602 0.288148
v -0.064518 0.033697 0.288152
v -0.056886 0.045529 0.288155
v -0.047092 0.055646 0.288157
v -0.035513 0.063657 0.288159
v -0.022593 0.069256 0.288159
v -0.008829 0.072226 0.288159
v 0.005249 0.072454 0.288158
v 0.019102 0.069931 0.288156
v 0.032196 0.064754 0.288153
v 0.044029 0.057122 0.288149
v 0.054146 0.047328 0.288145
v 0.062157 0.035749 0.288141
v 0.067755 0.022829 0.288136
v 0.070726 0.009065 0.288131
v 0.070954 -0.005013 0.288127
v 0.068431 -0.018866 0.288123
v 0.063254 -0.031960 0.288119
v 0.055622 -0.043793 0.288116
v 0.055589 -0.043989 -0.345421
v 0.063221 -0.032156 -0.345418
v 0.068398 -0.019062 -0.345414
v 0.070921 -0.005209 -0.345410
v 0.070693 0.008870 -0.345405
v 0.067723 0.022634 -0.345401
v 0.062124 0.035553 -0.345396
v 0.054113 0.047133 -0.345392
v 0.043996 0.056926 -0.345387
v 0.032164 0.064558 -0.345384
v 0.019069 0.069735 -0.345381
v 0.005217 0.072258 -0.345379
v -0.008862 0.072030 -0.345378
v -0.022626 0.069060 -0.345377
v -0.035546 0.063462 -0.345378
v -0.047125 0.055450 -0.345380
v -0.056919 0.045334 -0.345382
v -0.064551 0.033501 -0.345385
v -0.069728 0.020407 -0.345389
v -0.072251 0.006554 -0.345393
v -0.072023 -0.007525 -0.345398
v -0.069053 -0.021288 -0.345402
v -0.063454 -0.034208 -0.345407
v -0.055443 -0.045787 -0.345411
v -0.045326 -0.055581 -0.345415
v -0.033494 -0.063213 -0.345419
v -0.020400 -0.068391 -0.345422
v -0.006547 -0.070914 -0.345424
v 0.007532 -0.070686 -0.345425
v 0.021296 -0.067715 -0.345426
v 0.034215 -0.062117 -0.345425
v 0.045795 -0.054106 -0.345423
v -0.000674 0.000619 -0.519759
v 0.004995 -0.125679 0.432810
v 0.004989 -0.125709 0.335460
v -0.002140 -0.125794 0.432810
v -0.002146 -0.125824 0.335461
v 0.100774 0.075392 0.432702
v 0.100769 0.075362 0.335680
v 0.104821 0.069543 0.432699
v 0.104816 0.069513 0.335678
v -0.102959 0.062691 0.432662
v -0.102964 0.062661 0.335750
v -0.099109 0.068661 0.432663
v -0.099114 0.068631 0.335751
vt 0.000000 0.000000
vt 1.000000 0.000000
vt 1.000000 1.000000
vt 0.000000 1.000000
vt 0.539657 0.414427
vt 0.528190 0.408307
vt 0.529013 0.406902
vt 0.540772 0.413201
vt 0.531097 0.513278
vt 0.541747 0.507612
vt 0.542631 0.508877
vt 0.531630 0.514645
vt 0.484478 0.513391
vt 0.498700 0.517094
vt 0.363281 0.892780
vt 0.455415 0.909831
vt 0.509591 0.518559
vt 0.549409 0.910716
vt 0.520099 0.517688
vt 0.641858 0.895291
vt 0.728868 0.864635
vt 0.807581 0.818452
vt 0.552237 0.500775
vt 0.876822 0.758512
vt 0.559987 0.490849
vt 0.932918 0.686968
vt 0.565287 0.479569
vt 0.973370 0.606178
vt 0.567886 0.467451
vt 0.996175 0.519025
vt 0.567670 0.455055
vt 1.000000 0.428805
vt 0.564658 0.442930
vt 0.984291 0.339062
vt 0.558987 0.431601
vt 0.949321 0.253443
vt 0.550909 0.421550
vt 0.896213 0.175522
vt 0.826906 0.108606
vt 0.744075 0.055596
vt 0.516134 0.402907
vt 0.651033 0.018837
vt 0.502683 0.401367
vt 0.551583 0.000000
vt 0.489226 0.402316
vt 0.449854 0.000000
vt 0.476296 0.405615
vt 0.350121 0.018940
vt 0.464324 0.410577
vt 0.256600 0.056104
vt 0.453552 0.416806
vt 0.172844 0.109038
vt 0.444446 0.424848
vt 0.103085 0.176034
vt 0.437486 0.434360
vt 0.049947 0.253970
vt 0.433023 0.444751
vt 0.015256 0.339370
vt 0.431219 0.455086
vt 0.000000 0.428565
vt 0.431144 0.463850
vt 0.004506 0.518090
vt 0.433273 0.472312
vt 0.028141 0.604313
vt 0.437767 0.481578
vt 0.069359 0.684140
vt 0.445213 0.490789
vt 0.126084 0.754811
vt 0.455820 0.499409
vt 0.195788 0.814139
vt 0.469296 0.507544
vt 0.275809 0.860563
vt 0.470374 0.505940
vt 0.485282 0.511715
vt 0.457070 0.498061
vt 0.439090 0.480951
vt 0.446516 0.489801
vt 0.434520 0.471987
vt 0.432344 0.463799
vt 0.432515 0.455281
vt 0.434435 0.445214
vt 0.438823 0.435121
vt 0.445600 0.425871
vt 0.454461 0.418039
vt 0.464993 0.411944
vt 0.476772 0.407128
vt 0.489410 0.403886
vt 0.502527 0.402947
vt 0.515636 0.404432
vt 0.549548 0.422543
vt 0.557438 0.432320
vt 0.562986 0.443342
vt 0.565947 0.455142
vt 0.566187 0.467208
vt 0.563689 0.479008
vt 0.558566 0.489997
vt 0.551051 0.499683
vt 0.519908 0.516399
vt 0.509721 0.517317
vt 0.499157 0.515741
vt 0.888198 0.818876
vt 0.818559 0.888455
vt 0.500025 0.500268
vt 0.736694 0.943116
vt 0.645745 0.980762
vt 0.549204 0.999953
vt 0.450774 0.999953
vt 0.354232 0.980757
vt 0.263281 0.943105
vt 0.181413 0.888437
vt 0.111773 0.818848
vt 0.057036 0.737006
vt 0.019310 0.646051
vt 0.000050 0.549472
vt 0.000000 0.450980
vt 0.019171 0.354361
vt 0.056831 0.263330
vt 0.111537 0.181392
vt 0.181188 0.111700
vt 0.263107 0.056940
vt 0.354143 0.019221
vt 0.450792 0.000000
vt 0.549334 0.000013
vt 0.645976 0.019261
vt 0.736997 0.057002
vt 0.818897 0.111777
vt 0.888526 0.181478
vt 0.943210 0.263419
vt 0.980849 0.354447
vt 1.000000 0.451058
vt 0.999936 0.549538
vt 0.980667 0.646103
vt 0.942936 0.737046
vn 0.718470 -0.695557 0.000178
vn 0.718466 -0.695562 0.000177
vn 0.568961 -0.822365 0.000224
vn 0.568968 -0.822360 0.000225
vn 0.397592 -0.917562 0.000262
vn 0.397601 -0.917558 0.000263
vn 0.210945 -0.977498 0.000290
vn 0.210955 -0.977496 0.000291
vn -0.179175 -0.983817 0.000313
vn -0.179183 -0.983816 0.000313
vn -0.367665 -0.929958 0.000306
vn -0.367674 -0.929955 0.000307
vn -0.542027 -0.840361 0.000287
vn -0.542032 -0.840358 0.000288
vn -0.695559 -0.718469 0.000258
vn -0.695564 -0.718464 0.000258
vn -0.822359 -0.568969 0.000218
vn -0.822363 -0.568963 0.000219
vn -0.917559 -0.397600 0.000170
vn -0.917561 -0.397594 0.000171
vn -0.977496 -0.210954 0.000116
vn -0.977497 -0.210949 0.000116
vn -0.999869 -0.016200 0.000057
vn -0.999869 -0.016196 0.000057
vn -0.983817 0.179176 -0.000004
vn -0.983816 0.179180 -0.000004
vn -0.929958 0.367666 -0.000065
vn -0.929956 0.367670 -0.000065
vn -0.718470 0.695558 -0.000178
vn -0.718467 0.695561 -0.000177
vn -0.568967 0.822360 -0.000224
vn -0.568965 0.822362 -0.000224
vn -0.397600 0.917559 -0.000263
vn -0.397597 0.917560 -0.000263
vn -0.210953 0.977496 -0.000291
vn -0.016199 0.999869 -0.000308
vn 0.179178 0.983817 -0.000313
vn 0.179176 0.983817 -0.000313
vn 0.367666 0.929958 -0.000306
vn 0.367667 0.929957 -0.000306
vn 0.542029 0.840360 -0.000288
vn 0.695559 0.718469 -0.000258
vn 0.917558 0.397601 -0.000170
vn 0.917559 0.397600 -0.000170
vn 0.977496 0.210955 -0.000116
vn 0.977496 0.210953 -0.000116
vn 0.999869 0.016201 -0.000057
vn 0.999869 0.016199 -0.000057
vn 0.983817 -0.179174 0.000004
vn 0.983817 -0.179178 0.000004
vn 0.929958 -0.367665 0.000065
vn 0.929958 -0.367667 0.000065
vn 0.840362 -0.542026 0.000124
vn 0.840360 -0.542028 0.000124
vn 0.000000 0.000000 0.000000
vn 0.397592 -0.917562 0.000263
vn 0.210945 -0.977498 0.000291
vn 0.016192 -0.999869 0.000308
vn -0.367674 -0.929955 0.000306
vn -0.822363 -0.568963 0.000218
vn -0.822362 -0.568964 0.000218
vn -0.917561 -0.397594 0.000170
vn -0.917562 -0.397593 0.000170
vn -0.999869 -0.016195 0.000057
vn -0.983817 0.179179 -0.000004
vn -0.929956 0.367671 -0.000065
vn -0.840359 0.542030 -0.000124
vn -0.840360 0.542029 -0.000124
vn 0.822359 0.568968 -0.000218
vn 0.840363 -0.542024 0.000124
vn -0.840361 0.542026 -0.000124
vn -0.840359 0.542031 -0.000123
vn -0.591669 0.381432 0.710238
vn -0.591666 0.381436 0.710238
vn -0.591576 0.381751 -0.710144
vn -0.591576 0.381750 -0.710144
vn 0.479697 0.877434 -0.000295
vn -0.601509 -0.798866 0.000277
vn 0.822360 0.568968 -0.000218
vn 0.822361 0.568967 -0.000218
vn 0.541905 0.374637 0.752321
vn 0.541909 0.374632 0.752320
vn 0.541590 0.375000 -0.752366
vn 0.541588 0.375004 -0.752366
vn 0.620476 -0.784225 0.000209
vn -0.515122 0.857117 -0.000238
vn 0.016202 -0.999869 0.000307
vn 0.016187 -0.999869 0.000308
vn 0.010621 -0.651262 0.758779
vn 0.010610 -0.651261 0.758780
vn 0.010483 -0.651179 -0.758852
vn 0.010472 -0.651180 -0.758851
vn -0.996879 -0.078950 0.000079
vn 0.998913 -0.046623 -0.000041
vn 0.664842 -0.643561 -0.379228
vn 0.526502 -0.760925 -0.379194
vn 0.367921 -0.849039 -0.379166
vn 0.195186 -0.904518 -0.379144
vn 0.014946 -0.925223 -0.379129
vn -0.165855 -0.910362 -0.379121
vn -0.340298 -0.860502 -0.379122
vn -0.501647 -0.777567 -0.379131
vn -0.643709 -0.664745 -0.379147
vn -0.761024 -0.526377 -0.379170
vn -0.849083 -0.367784 -0.379200
vn -0.904505 -0.195069 -0.379234
vn -0.925166 -0.014860 -0.379272
vn -0.910275 0.165899 -0.379312
vn -0.860407 0.340281 -0.379353
vn -0.777486 0.501574 -0.379393
vn -0.664697 0.643592 -0.379431
vn -0.526376 0.760878 -0.379464
vn -0.367835 0.848930 -0.379492
vn -0.195182 0.904363 -0.379515
vn -0.015018 0.925058 -0.379530
vn 0.165719 0.910214 -0.379537
vn 0.340080 0.860406 -0.379536
vn 0.501396 0.777535 -0.379528
vn 0.643441 0.664797 -0.379511
vn 0.760778 0.526503 -0.379488
vn 0.848883 0.367978 -0.379458
vn 0.904374 0.195309 -0.379424
vn 0.925115 0.015115 -0.379386
vn 0.910302 -0.165671 -0.379346
vn 0.860500 -0.340099 -0.379305
vn 0.777622 -0.501460 -0.379265
vn 0.000092 -0.000324 1.000000
vn 0.000095 -0.000320 1.000000
vn 0.000093 -0.000327 1.000000
vn 0.000093 -0.000320 1.000000
vn 0.000093 -0.000318 1.000000
vn 0.000096 -0.000327 1.000000
vn 0.000093 -0.000322 1.000000
vn 0.000091 -0.000320 1.000000
vn 0.000093 -0.000321 1.000000
vn 0.000094 -0.000321 1.000000
vn 0.000092 -0.000321 1.000000
vn 0.000096 -0.000321 1.000000
vn 0.000087 -0.000322 1.000000
vn 0.000097 -0.000319 1.000000
vn 0.000089 -0.000327 1.000000
vn 0.000092 -0.000329 1.000000
vn 0.000090 -0.000314 1.000000
vn 0.000095 -0.000325 1.000000
vn 0.000087 -0.000318 1.000000
vn 0.000096 -0.000322 1.000000
vn 0.000098 -0.000322 1.000000
vn 0.000085 -0.000327 1.000000
vn 0.000100 -0.000315 1.000000
usemtl None_red.tga
s off
f 33/1/1 1/2/1 32/3/1
f 33/1/2 32/3/2 64/4/2
f 31/1/3 63/2/3 64/3/3
f 31/1/4 64/3/4 32/4/4
f 30/1/5 62/2/5 63/3/5
f 30/1/6 63/3/6 31/4/6
f 29/1/7 61/2/7 62/3/7
f 29/1/8 62/3/8 30/4/8
f 27/1/9 59/2/9 28/4/9
f 59/2/10 60/3/10 28/4/10
f 26/1/11 58/2/11 27/4/11
f 58/2/12 59/3/12 27/4/12
f 25/1/13 57/2/13 26/4/13
f 57/2/14 58/3/14 26/4/14
f 24/1/15 56/2/15 25/4/15
f 56/2/16 57/3/16 25/4/16
f 23/1/17 55/2/17 24/4/17
f 55/2/18 56/3/18 24/4/18
f 22/1/19 54/2/19 23/4/19
f 54/2/20 55/3/20 23/4/20
f 21/1/21 53/2/21 22/4/21
f 53/2/22 54/3/22 22/4/22
f 20/1/23 52/2/23 21/4/23
f 52/2/24 53/3/24 21/4/24
f 19/1/25 51/2/25 20/4/25
f 51/2/26 52/3/26 20/4/26
f 18/1/27 50/2/27 19/4/27
f 50/2/28 51/3/28 19/4/28
f 16/1/29 48/2/29 17/4/29
f 48/2/30 49/3/30 17/4/30
f 15/1/31 47/2/31 16/4/31
f 47/2/32 48/3/32 16/4/32
f 14/1/33 46/2/33 15/4/33
f 46/2/34 47/3/34 15/4/34
f 13/1/35 45/2/35 14/4/35
f 45/2/35 46/3/35 14/4/35
f 12/1/36 44/2/36 45/3/36
f 12/1/36 45/3/36 13/4/36
f 11/1/37 43/2/37 44/3/37
f 11/1/38 44/3/38 12/4/38
f 10/1/39 42/2/39 43/3/39
f 10/1/40 43/3/40 11/4/40
f 9/1/41 41/2/41 42/3/41
f 9/1/41 42/3/41 10/4/41
f 8/1/42 40/2/42 41/3/42
f 8/1/42 41/3/42 9/4/42
f 6/1/43 38/2/43 39/3/43
f 6/1/44 39/3/44 7/4/44
f 5/1/45 37/2/45 38/3/45
f 5/1/46 38/3/46 6/4/46
f 4/1/47 36/2/47 37/3/47
f 4/1/48 37/3/48 5/4/48
f 3/1/49 35/2/49 36/3/49
f 3/1/50 36/3/50 4/4/50
f 2/1/51 34/2/51 35/3/51
f 2/1/52 35/3/52 3/4/52
f 1/1/53 33/2/53 34/3/53
f 1/1/54 34/3/54 2/4/54
usemtl None_brushed-metal.tga
f 51/5/55 50/6/55 80/7/55
f 51/5/55 80/7/55 79/8/55
f 61/9/55 60/10/55 70/11/55
f 61/9/55 70/11/55 69/12/55
usemtl None_dark-metal.tga
f 97/13/2 66/14/2 98/15/2
f 66/14/2 129/16/2 98/15/2
f 66/14/3 67/17/3 129/16/3
f 67/17/3 128/18/3 129/16/3
f 67/17/56 68/19/56 128/18/56
f 68/19/56 127/20/56 128/18/56
f 68/19/57 69/12/57 127/20/57
f 69/12/57 126/21/57 127/20/57
f 69/12/58 70/11/58 125/22/58
f 69/12/58 125/22/58 126/21/58
f 70/11/10 71/23/10 124/24/10
f 70/11/10 124/24/10 125/22/10
f 71/23/59 72/25/59 123/26/59
f 71/23/59 123/26/59 124/24/59
f 72/25/14 73/27/14 122/28/14
f 72/25/14 122/28/14 123/26/14
f 73/27/16 74/29/16 121/30/16
f 73/27/16 121/30/16 122/28/16
f 74/29/60 75/31/60 120/32/60
f 74/29/61 120/32/61 121/30/61
f 75/31/62 76/33/62 119/34/62
f 75/31/63 119/34/63 120/32/63
f 76/33/22 77/35/22 118/36/22
f 76/33/22 118/36/22 119/34/22
f 77/35/24 78/37/24 117/38/24
f 77/35/64 117/38/64 118/36/64
f 78/37/26 79/8/26 116/39/26
f 78/37/65 116/39/65 117/38/65
f 79/8/28 80/7/28 115/40/28
f 79/8/66 115/40/66 116/39/66
f 80/7/67 81/41/67 114/42/67
f 80/7/68 114/42/68 115/40/68
f 81/41/30 82/43/30 113/44/30
f 81/41/30 113/44/30 114/42/30
f 82/43/32 83/45/32 112/46/32
f 82/43/32 112/46/32 113/44/32
f 83/45/34 84/47/34 111/48/34
f 83/45/34 111/48/34 112/46/34
f 84/47/35 85/49/35 110/50/35
f 84/47/35 110/50/35 111/48/35
f 85/49/36 86/51/36 110/50/36
f 86/51/36 109/52/36 110/50/36
f 86/51/37 87/53/37 109/52/37
f 87/53/37 108/54/37 109/52/37
f 87/53/39 88/55/39 108/54/39
f 88/55/39 107/56/39 108/54/39
f 88/55/41 89/57/41 107/56/41
f 89/57/41 106/58/41 107/56/41
f 89/57/42 90/59/42 106/58/42
f 90/59/42 105/60/42 106/58/42
f 90/59/69 91/61/69 105/60/69
f 91/61/69 104/62/69 105/60/69
f 91/61/43 92/63/43 104/62/43
f 92/63/43 103/64/43 104/62/43
f 92/63/45 93/65/45 103/64/45
f 93/65/45 102/66/45 103/64/45
f 93/65/47 94/67/47 102/66/47
f 94/67/47 101/68/47 102/66/47
f 94/67/49 95/69/49 101/68/49
f 95/69/49 100/70/49 101/68/49
f 95/69/51 96/71/51 100/70/51
f 96/71/52 99/72/52 100/70/52
f 96/71/53 97/13/53 99/72/53
f 97/13/70 98/15/70 99/72/70
f 34/73/55 33/74/55 97/13/55
f 34/73/55 97/13/55 96/71/55
f 35/75/55 34/73/55 96/71/55
f 35/75/55 96/71/55 95/69/55
f 37/76/55 36/77/55 94/67/55
f 37/76/55 94/67/55 93/65/55
f 38/78/55 37/76/55 93/65/55
f 38/78/55 93/65/55 92/63/55
f 39/79/55 38/78/55 92/63/55
f 39/79/55 92/63/55 91/61/55
f 40/80/55 39/79/55 91/61/55
f 40/80/55 91/61/55 90/59/55
f 41/81/55 40/80/55 90/59/55
f 41/81/55 90/59/55 89/57/55
f 42/82/55 41/81/55 89/57/55
f 42/82/55 89/57/55 88/55/55
f 43/83/55 42/82/55 88/55/55
f 43/83/55 88/55/55 87/53/55
f 44/84/55 43/83/55 87/53/55
f 44/84/55 87/53/55 86/51/55
f 45/85/55 44/84/55 86/51/55
f 45/85/55 86/51/55 85/49/55
f 46/86/55 45/85/55 85/49/55
f 46/86/55 85/49/55 84/47/55
f 47/87/55 46/86/55 84/47/55
f 47/87/55 84/47/55 83/45/55
f 48/88/55 47/87/55 83/45/55
f 48/88/55 83/45/55 82/43/55
f 49/89/55 48/88/55 82/43/55
f 49/89/55 82/43/55 81/41/55
f 50/6/55 49/89/55 81/41/55
f 50/6/55 81/41/55 80/7/55
f 52/90/55 51/5/55 79/8/55
f 52/90/55 79/8/55 78/37/55
f 53/91/55 52/90/55 78/37/55
f 53/91/55 78/37/55 77/35/55
f 54/92/55 53/91/55 77/35/55
f 54/92/55 77/35/55 76/33/55
f 55/93/55 54/92/55 76/33/55
f 55/93/55 76/33/55 75/31/55
f 56/94/55 55/93/55 75/31/55
f 56/94/55 75/31/55 74/29/55
f 57/95/55 56/94/55 74/29/55
f 57/95/55 74/29/55 73/27/55
f 58/96/55 57/95/55 73/27/55
f 58/96/55 73/27/55 72/25/55
f 59/97/55 58/96/55 72/25/55
f 59/97/55 72/25/55 71/23/55
f 60/10/55 59/97/55 71/23/55
f 60/10/55 71/23/55 70/11/55
f 62/98/55 61/9/55 69/12/55
f 62/98/55 69/12/55 68/19/55
f 63/99/55 62/98/55 68/19/55
f 63/99/55 68/19/55 67/17/55
f 64/100/55 63/99/55 67/17/55
f 64/100/55 67/17/55 66/14/55
f 33/74/55 64/100/55 66/14/55
f 33/74/55 66/14/55 97/13/55
usemtl None_brushed-metal.tga
f 141/1/71 142/2/71 139/4/71
f 142/2/72 140/3/72 139/4/72
f 18/1/73 17/2/73 141/3/73
f 18/1/74 141/3/74 139/4/74
f 49/1/75 50/2/75 140/3/75
f 49/1/76 140/3/76 142/4/76
f 17/1/77 49/2/77 142/3/77
f 17/1/77 142/3/77 141/4/77
f 50/1/78 18/2/78 140/4/78
f 18/2/78 139/3/78 140/4/78
f 137/1/79 138/2/79 136/3/79
f 137/1/80 136/3/80 135/4/80
f 8/1/81 7/2/81 135/4/81
f 7/2/82 137/3/82 135/4/82
f 39/1/83 40/2/83 138/4/83
f 40/2/84 136/3/84 138/4/84
f 7/1/85 39/2/85 138/3/85
f 7/1/85 138/3/85 137/4/85
f 40/1/86 8/2/86 136/4/86
f 8/2/86 135/3/86 136/4/86
f 133/1/87 134/2/87 131/4/87
f 134/2/88 132/3/88 131/4/88
f 29/1/89 28/2/89 133/3/89
f 29/1/90 133/3/90 131/4/90
f 60/1/91 61/2/91 132/3/91
f 60/1/92 132/3/92 134/4/92
f 28/1/93 60/2/93 133/4/93
f 60/2/93 134/3/93 133/4/93
f 61/1/94 29/2/94 131/3/94
f 61/1/94 131/3/94 132/4/94
f 36/77/55 35/75/55 95/69/55
f 36/77/55 95/69/55 94/67/55
usemtl None_red.tga.001
f 98/101/95 129/102/95 130/103/95
f 129/102/96 128/104/96 130/103/96
f 128/104/97 127/105/97 130/103/97
f 127/105/98 126/106/98 130/103/98
f 126/106/99 125/107/99 130/103/99
f 125/107/100 124/108/100 130/103/100
f 124/108/101 123/109/101 130/103/101
f 123/109/102 122/110/102 130/103/102
f 122/110/103 121/111/103 130/103/103
f 121/111/104 120/112/104 130/103/104
f 120/112/105 119/113/105 130/103/105
f 119/113/106 118/114/106 130/103/106
f 118/114/107 117/115/107 130/103/107
f 117/115/108 116/116/108 130/103/108
f 116/116/109 115/117/109 130/103/109
f 115/117/110 114/118/110 130/103/110
f 114/118/111 113/119/111 130/103/111
f 113/119/112 112/120/112 130/103/112
f 112/120/113 111/121/113 130/103/113
f 111/121/114 110/122/114 130/103/114
f 110/122/115 109/123/115 130/103/115
f 109/123/116 108/124/116 130/103/116
f 108/124/117 107/125/117 130/103/117
f 107/125/118 106/126/118 130/103/118
f 106/126/119 105/127/119 130/103/119
f 105/127/120 104/128/120 130/103/120
f 104/128/121 103/129/121 130/103/121
f 103/129/122 102/130/122 130/103/122
f 102/130/123 101/131/123 130/103/123
f 101/131/124 100/132/124 130/103/124
f 100/132/125 99/133/125 130/103/125
f 99/133/126 98/101/126 130/103/126
usemtl None_red.tga
f 65/1/127 1/2/127 2/3/127
f 65/1/128 2/2/128 3/3/128
f 65/1/129 3/2/129 4/3/129
f 65/1/130 4/2/130 5/3/130
f 65/1/131 5/2/131 6/3/131
f 65/1/132 6/2/132 7/3/132
f 65/1/133 7/2/133 8/3/133
f 65/1/134 8/2/134 9/3/134
f 65/1/135 9/2/135 10/3/135
f 65/1/136 10/2/136 11/3/136
f 65/1/137 11/2/137 12/3/137
f 65/1/138 12/2/138 13/3/138
f 65/1/139 13/2/139 14/3/139
f 65/1/140 14/2/140 15/3/140
f 65/1/128 15/2/128 16/3/128
f 65/1/133 16/2/133 17/3/133
f 65/1/141 17/2/141 18/3/141
f 65/1/137 18/2/137 19/3/137
f 65/1/131 19/2/131 20/3/131
f 65/1/142 20/2/142 21/3/142
f 65/1/143 21/2/143 22/3/143
f 65/1/133 22/2/133 23/3/133
f 65/1/133 23/2/133 24/3/133
f 65/1/144 24/2/144 25/3/144
f 65/1/145 25/2/145 26/3/145
f 65/1/146 26/2/146 27/3/146
f 65/1/137 27/2/137 28/3/137
f 65/1/146 28/2/146 29/3/146
f 65/1/147 29/2/147 30/3/147
f 65/1/127 30/2/127 31/3/127
f 65/1/148 31/2/148 32/3/148
f 32/1/149 1/2/149 65/3/149
