mtllib bullet.mtl
v 0.123281 0.002441 -0.235961
v 0.152322 0.002441 -0.146412
v 0.123182 0.002441 -0.056896
v 0.046990 0.002441 -0.001604
v -0.047150 0.002441 -0.001656
v -0.123281 0.002441 -0.057033
v -0.152322 0.002441 -0.146581
v -0.123181 0.002441 -0.236098
v -0.046989 0.002441 -0.291390
v 0.047151 0.002441 -0.291338
v 0.123281 0.307085 -0.235961
v 0.152322 0.307085 -0.146412
v 0.123182 0.307085 -0.056896
v 0.046990 0.307085 -0.001604
v -0.047151 0.307085 -0.001656
v -0.123281 0.307085 -0.057033
v -0.152322 0.307085 -0.146582
v -0.123181 0.307085 -0.236098
v -0.046989 0.307085 -0.291390
v 0.047151 0.307085 -0.291337
v 0.000000 0.002441 -0.146497
v 0.000000 0.398523 -0.146497
v 0.027447 0.398523 -0.230809
v -0.027352 0.398523 -0.230839
v -0.071704 0.398523 -0.198654
v -0.088667 0.398523 -0.146546
v -0.071762 0.398523 -0.094420
v -0.027446 0.398523 -0.062185
v 0.027353 0.398523 -0.062154
v 0.071704 0.398523 -0.094340
v 0.088667 0.398523 -0.146448
v 0.071762 0.398523 -0.198574
vt 0.907072 0.772758
vt 0.490053 0.503350
vt 1.000000 0.474091
vt 0.509282 0.501502
vt 0.523693 0.488385
vt 0.901593 0.180028
vt 0.527739 0.469128
vt 0.651507 0.000000
vt 0.519952 0.450692
vt 0.344583 0.000000
vt 0.502847 0.439244
vt 0.096119 0.179163
vt 0.485321 0.444020
vt 0.000000 0.469880
vt 0.472670 0.457139
vt 0.090750 0.764770
vt 0.468509 0.475045
vt 0.338588 0.953732
vt 0.473992 0.493046
vt 0.654039 0.962392
vt 0.498124 0.472177
vt 0.699992 0.478625
vt 0.657086 0.594705
vt 0.665264 0.358559
vt 0.565993 0.281004
vt 0.437928 0.274899
vt 0.335087 0.351462
vt 0.296024 0.471227
vt 0.334244 0.590227
vt 0.434647 0.662579
vt 0.555209 0.659261
vt 1.000000 0.464736
vt 0.908038 0.765901
vt 0.897399 0.173288
vt 0.648895 0.000000
vt 0.354047 0.000000
vt 0.109427 0.164609
vt 0.000000 0.447113
vt 0.077588 0.746195
vt 0.322021 0.944715
vt 0.645469 0.955062
vt 0.497406 0.472155
vn 0.588236 0.000000 -0.808690
vn 0.588234 -0.000000 -0.808690
vn 0.000555 -0.000000 -1.000000
vn 0.000558 0.000000 -1.000000
vn -0.587336 -0.000000 -0.809343
vn -0.587334 0.000000 -0.809345
vn -0.950885 -0.000000 -0.309545
vn -0.950884 0.000000 -0.309548
vn -0.951228 -0.000000 0.308489
vn -0.951229 0.000000 0.308487
vn -0.588235 -0.000000 0.808690
vn -0.588236 0.000000 0.808689
vn -0.000555 -0.000000 1.000000
vn -0.000556 0.000000 1.000000
vn 0.587336 -0.000000 0.809343
vn 0.587334 0.000000 0.809344
vn 0.950885 -0.000000 0.309545
vn 0.950884 0.000000 0.309546
vn 0.951228 -0.000000 -0.308488
vn 0.951228 0.000000 -0.308489
vn 0.000000 1.000000 0.000000
vn 0.793144 0.552051 -0.257220
vn 0.793144 0.552050 -0.257221
vn 0.792857 0.552051 0.258103
vn 0.792857 0.552051 0.258102
vn 0.489725 0.552051 0.674840
vn 0.489726 0.552051 0.674839
vn -0.000464 0.552051 0.833810
vn -0.000463 0.552051 0.833810
vn -0.490477 0.552051 0.674293
vn -0.793144 0.552051 0.257220
vn -0.792857 0.552051 -0.258104
vn -0.489725 0.552050 -0.674840
vn 0.000465 0.552050 -0.833811
vn 0.490477 0.552050 -0.674294
vn 0.000000 -1.000000 0.000000
usemtl None_bullet-gold.tga
s off
f 11/1/1 1/2/1 20/3/1
f 1/2/2 10/4/2 20/3/2
f 9/5/3 19/6/3 10/4/3
f 19/6/4 20/3/4 10/4/4
f 8/7/5 18/8/5 9/5/5
f 18/8/6 19/6/6 9/5/6
f 7/9/7 17/10/7 8/7/7
f 17/10/8 18/8/8 8/7/8
f 6/11/9 16/12/9 7/9/9
f 16/12/10 17/10/10 7/9/10
f 5/13/11 15/14/11 6/11/11
f 15/14/12 16/12/12 6/11/12
f 4/15/13 14/16/13 5/13/13
f 14/16/14 15/14/14 5/13/14
f 3/17/15 13/18/15 4/15/15
f 13/18/16 14/16/16 4/15/16
f 2/19/17 12/20/17 3/17/17
f 12/20/18 13/18/18 3/17/18
f 1/2/19 11/1/19 12/20/19
f 1/2/20 12/20/20 2/19/20
usemtl None_bullet-head.tga
f 22/21/21 31/22/21 32/23/21
f 22/21/21 30/24/21 31/22/21
f 22/21/21 29/25/21 30/24/21
f 22/21/21 28/26/21 29/25/21
f 22/21/21 27/27/21 28/26/21
f 22/21/21 26/28/21 27/27/21
f 22/21/21 25/29/21 26/28/21
f 22/21/21 24/30/21 25/29/21
f 22/21/21 23/31/21 24/30/21
f 22/21/21 32/23/21 23/31/21
f 12/32/22 11/33/22 32/23/22
f 12/32/23 32/23/23 31/22/23
f 13/34/24 12/32/24 31/22/24
f 13/34/25 31/22/25 30/24/25
f 14/35/26 13/34/26 30/24/26
f 14/35/27 30/24/27 29/25/27
f 15/36/28 14/35/28 29/25/28
f 15/36/29 29/25/29 28/26/29
f 16/37/30 15/36/30 28/26/30
f 16/37/30 28/26/30 27/27/30
f 17/38/31 16/37/31 27/27/31
f 17/38/31 27/27/31 26/28/31
f 18/39/32 17/38/32 26/28/32
f 18/39/32 26/28/32 25/29/32
f 19/40/33 18/39/33 25/29/33
f 19/40/33 25/29/33 24/30/33
f 20/41/34 19/40/34 24/30/34
f 20/41/34 24/30/34 23/31/34
f 11/33/35 20/41/35 23/31/35
f 11/33/35 23/31/35 32/23/35
usemtl None_bullet-gold.tga
f 21/42/36 1/2/36 2/19/36
f 21/42/36 2/19/36 3/17/36
f 21/42/36 3/17/36 4/15/36
f 21/42/36 4/15/36 5/13/36
f 21/42/36 5/13/36 6/11/36
f 21/42/36 6/11/36 7/9/36
f 21/42/36 7/9/36 8/7/36
f 21/42/36 8/7/36 9/5/36
f 21/42/36 9/5/36 10/4/36
f 10/4/36 1/2/36 21/42/36
