mtllib bullet.mtl
v 0.031499 -0.031150 0.037649
v 0.043978 -0.006657 0.037649
v 0.039678 0.020493 0.037649
v 0.020240 0.039931 0.037649
v -0.006910 0.044231 0.037649
v -0.031403 0.031751 0.037649
v -0.043883 0.007258 0.037649
v -0.039582 -0.019892 0.037649
v -0.020145 -0.039330 0.037649
v 0.007006 -0.043630 0.037649
v 0.031499 -0.031150 -0.036380
v 0.043978 -0.006657 -0.036380
v 0.039678 0.020493 -0.036380
v 0.020240 0.039931 -0.036380
v -0.006910 0.044231 -0.036380
v -0.031403 0.031751 -0.036380
v -0.043883 0.007258 -0.036380
v -0.039582 -0.019892 -0.036380
v -0.020145 -0.039330 -0.036380
v 0.007006 -0.043630 -0.036380
v 0.000048 0.000301 0.037649
v 0.000048 0.000300 -0.058599
v 0.004098 -0.025271 -0.058599
v -0.011706 -0.022768 -0.058599
v -0.023021 -0.011454 -0.058599
v -0.025524 0.004351 -0.058599
v -0.018260 0.018608 -0.058599
v -0.004002 0.025872 -0.058599
v 0.011802 0.023369 -0.058599
v 0.023117 0.012055 -0.058599
v 0.025620 -0.003750 -0.058599
v 0.018355 -0.018007 -0.058599
vt 0.907072 0.772758
vt 0.490053 0.503350
vt 1.000000 0.474091
vt 0.509282 0.501502
vt 0.523693 0.488385
vt 0.901593 0.180028
vt 0.527739 0.469128
vt 0.651507 0.000000
vt 0.519952 0.450692
vt 0.344583 0.000000
vt 0.502847 0.439244
vt 0.096119 0.179163
vt 0.485321 0.444020
vt 0.000000 0.469880
vt 0.472670 0.457139
vt 0.090750 0.764770
vt 0.468509 0.475045
vt 0.338588 0.953732
vt 0.473992 0.493046
vt 0.654039 0.962392
vt 0.498124 0.472177
vt 0.699992 0.478625
vt 0.657086 0.594705
vt 0.665264 0.358559
vt 0.565993 0.281004
vt 0.437928 0.274899
vt 0.335087 0.351462
vt 0.296024 0.471227
vt 0.334244 0.590227
vt 0.434647 0.662579
vt 0.555209 0.659261
vt 1.000000 0.464736
vt 0.908038 0.765901
vt 0.897399 0.173288
vt 0.648895 0.000000
vt 0.354047 0.000000
vt 0.109427 0.164609
vt 0.000000 0.447113
vt 0.077588 0.746195
vt 0.322021 0.944715
vt 0.645469 0.955062
vt 0.497406 0.472155
vn 0.453992 -0.891006 -0.000000
vn 0.453991 -0.891007 0.000001
vn -0.156434 -0.987688 0.000000
vn -0.156431 -0.987689 -0.000000
vn -0.707106 -0.707107 0.000000
vn -0.707105 -0.707109 -0.000000
vn -0.987688 -0.156435 0.000000
vn -0.987688 -0.156437 -0.000001
vn -0.891007 0.453990 0.000000
vn -0.891007 0.453989 -0.000000
vn -0.453990 0.891007 0.000000
vn -0.453992 0.891006 -0.000001
vn 0.156434 0.987688 0.000000
vn 0.156433 0.987689 -0.000000
vn 0.707107 0.707107 0.000000
vn 0.707105 0.707108 -0.000000
vn 0.987688 0.156435 0.000000
vn 0.987688 0.156436 -0.000000
vn 0.891007 -0.453989 0.000000
vn 0.891006 -0.453991 -0.000000
vn 0.000000 0.000000 -1.000000
vn 0.697258 -0.355269 -0.622588
vn 0.697258 -0.355270 -0.622587
vn 0.772915 0.122419 -0.622588
vn 0.772916 0.122419 -0.622587
vn 0.553345 0.553348 -0.622588
vn 0.553346 0.553347 -0.622587
vn 0.122417 0.772916 -0.622588
vn -0.355272 0.697257 -0.622588
vn -0.355272 0.697256 -0.622588
vn -0.697258 0.355269 -0.622588
vn -0.772915 -0.122420 -0.622588
vn -0.553345 -0.553348 -0.622587
vn -0.122415 -0.772916 -0.622587
vn 0.355272 -0.697257 -0.622587
vn 0.355272 -0.697256 -0.622588
vn 0.000000 0.000000 1.000000
usemtl None_bullet-gold.tga
s off
f 11/1/1 1/2/1 20/3/1
f 1/2/2 10/4/2 20/3/2
f 9/5/3 19/6/3 10/4/3
f 19/6/4 20/3/4 10/4/4
f 8/7/5 18/8/5 9/5/5
f 18/8/6 19/6/6 9/5/6
f 7/9/7 17/10/7 8/7/7
f 17/10/8 18/8/8 8/7/8
f 6/11/9 16/12/9 7/9/9
f 16/12/10 17/10/10 7/9/10
f 5/13/11 15/14/11 6/11/11
f 15/14/12 16/12/12 6/11/12
f 4/15/13 14/16/13 5/13/13
f 14/16/14 15/14/14 5/13/14
f 3/17/15 13/18/15 4/15/15
f 13/18/16 14/16/16 4/15/16
f 2/19/17 12/20/17 3/17/17
f 12/20/18 13/18/18 3/17/18
f 1/2/19 11/1/19 12/20/19
f 1/2/20 12/20/20 2/19/20
usemtl None_bullet-head.tga
f 22/21/21 31/22/21 32/23/21
f 22/21/21 30/24/21 31/22/21
f 22/21/21 29/25/21 30/24/21
f 22/21/21 28/26/21 29/25/21
f 22/21/21 27/27/21 28/26/21
f 22/21/21 26/28/21 27/27/21
f 22/21/21 25/29/21 26/28/21
f 22/21/21 24/30/21 25/29/21
f 22/21/21 23/31/21 24/30/21
f 22/21/21 32/23/21 23/31/21
f 12/32/22 11/33/22 32/23/22
f 12/32/23 32/23/23 31/22/23
f 13/34/24 12/32/24 31/22/24
f 13/34/25 31/22/25 30/24/25
f 14/35/26 13/34/26 30/24/26
f 14/35/27 30/24/27 29/25/27
f 15/36/28 14/35/28 29/25/28
f 15/36/28 29/25/28 28/26/28
f 16/37/29 15/36/29 28/26/29
f 16/37/30 28/26/30 27/27/30
f 17/38/31 16/37/31 27/27/31
f 17/38/31 27/27/31 26/28/31
f 18/39/32 17/38/32 26/28/32
f 18/39/32 26/28/32 25/29/32
f 19/40/33 18/39/33 25/29/33
f 19/40/33 25/29/33 24/30/33
f 20/41/34 19/40/34 24/30/34
f 20/41/34 24/30/34 23/31/34
f 11/33/35 20/41/35 23/31/35
f 11/33/36 23/31/36 32/23/36
usemtl None_bullet-gold.tga
f 21/42/37 1/2/37 2/19/37
f 21/42/37 2/19/37 3/17/37
f 21/42/37 3/17/37 4/15/37
f 21/42/37 4/15/37 5/13/37
f 21/42/37 5/13/37 6/11/37
f 21/42/37 6/11/37 7/9/37
f 21/42/37 7/9/37 8/7/37
f 21/42/37 8/7/37 9/5/37
f 21/42/37 9/5/37 10/4/37
f 10/4/37 1/2/37 21/42/37
