mtllib sun.mtl
v -0.276667 -0.316954 -1.285854
v 0.723318 0.007967 -1.284876
v 0.723318 1.059383 -1.277675
v -0.276666 1.384287 -1.274203
v -0.894706 0.533661 -1.279258
v -0.000630 0.535582 -1.559704
v -0.987608 0.852994 -1.050959
v -0.987608 0.211232 -1.055355
v -0.610375 -0.307973 -1.059381
v -0.000000 -0.506287 -1.061500
v 0.610375 -0.307963 -1.060903
v 0.987608 0.211248 -1.057817
v 0.987608 0.853011 -1.053422
v 0.610375 1.372216 -1.049395
v 0.000000 1.570529 -1.047276
v -0.610375 1.372205 -1.047874
v -0.688520 0.033950 -1.322618
v 0.262537 -0.275050 -1.325920
v 0.850316 0.533948 -1.321111
v 0.262538 1.342936 -1.314839
v -0.688520 1.033920 -1.315769
v -0.526265 0.535061 -1.483581
v -0.162991 0.035080 -1.487459
v 0.424786 0.226065 -1.486884
v 0.424787 0.844073 -1.482651
v -0.162991 1.035047 -1.480610
v -0.959399 0.693534 -1.169556
v -0.959399 0.372301 -1.171756
v -0.449331 -0.329726 -1.177201
v -0.143808 -0.428991 -1.178261
v 0.681494 -0.160831 -1.177454
v 0.870318 0.099060 -1.175909
v 0.870318 0.966806 -1.169966
v 0.681494 1.226694 -1.167950
v -0.143808 1.494840 -1.165085
v -0.449331 1.395570 -1.165384
v -0.501691 -0.168160 -1.314124
v -0.822936 0.273980 -1.310693
v -0.007344 -0.328773 -1.315840
v 0.512434 -0.159883 -1.315331
v 0.817953 0.260623 -1.312831
v 0.817953 0.807134 -1.309088
v 0.512434 1.227635 -1.305828
v -0.007344 1.396516 -1.304023
v -0.501691 1.235894 -1.304507
v -0.822936 0.793749 -1.307133
v -0.738598 0.534450 -1.394359
v -0.273872 0.535448 -1.540130
v -0.228528 -0.167572 -1.399806
v -0.085048 0.275566 -1.542146
v 0.596769 0.100589 -1.398998
v 0.220470 0.374837 -1.541847
v 0.596769 0.968333 -1.393055
v 0.220470 0.696067 -1.539647
v -0.228528 1.236480 -1.390189
v -0.085048 0.795333 -1.538586
v -1.038431 0.532112 -1.053094
v -0.320893 -0.455466 -1.060752
v 0.840110 -0.078231 -1.059616
v 0.840110 1.142487 -1.051255
v -0.320893 1.519703 -1.047224
v -0.861978 0.107758 -1.195894
v -0.840110 -0.078245 -1.057521
v -0.670994 -0.155102 -1.197933
v 0.138024 -0.417954 -1.200742
v 0.320893 -0.455461 -1.061552
v 0.447041 -0.317547 -1.200439
v 0.947038 0.370632 -1.196349
v 1.038431 0.532130 -1.055683
v 0.947038 0.695539 -1.194124
v 0.447041 1.383710 -1.188787
v 0.320893 1.519708 -1.048024
v 0.138024 1.484112 -1.187715
v -0.670994 1.221246 -1.188506
v -0.840110 1.142473 -1.049161
v -0.861978 0.958382 -1.190068
v -0.447666 0.008907 -1.423084
v -0.638650 0.271762 -1.421044
v -0.362364 0.272357 -1.507707
v 0.361347 -0.053137 -1.424517
v 0.052334 -0.153543 -1.424820
v 0.137634 0.109908 -1.509443
v 0.670361 0.697084 -1.419764
v 0.670361 0.372178 -1.421989
v 0.446646 0.535220 -1.506915
v 0.052335 1.222795 -1.415393
v 0.361347 1.122394 -1.416466
v 0.137634 0.960527 -1.503617
v -0.638650 0.797478 -1.417444
v -0.447666 1.060336 -1.415882
v -0.362363 0.798070 -1.504106
v -1.013020 0.692553 -1.052027
v -1.013020 0.371672 -1.054224
v -0.465634 -0.381720 -1.060067
v -0.160447 -0.480876 -1.061126
v 0.725243 -0.193097 -1.060259
v 0.913859 0.066509 -1.058717
v 0.913859 0.997749 -1.052338
v 0.725243 1.257351 -1.050325
v -0.160446 1.545116 -1.047250
v -0.465634 1.445954 -1.047549
v -0.913859 0.066493 -1.056438
v -0.725243 -0.193109 -1.058451
v 0.160446 -0.480874 -1.061526
v 0.465634 -0.381712 -1.061228
v 1.013020 0.371689 -1.056750
v 1.013020 0.692570 -1.054552
v 0.465634 1.445962 -1.048710
v 0.160447 1.545119 -1.047650
v -0.913859 0.997733 -1.050060
v -0.725243 1.257339 -1.048517
vt 0.940571 0.511359
vt 0.913085 0.653730
vt 0.873759 0.572299
vt 0.993755 0.595466
vt 0.481724 0.940335
vt 0.547017 0.877767
vt 0.625623 0.922479
vt 0.562069 0.999052
vt 0.137301 0.749991
vt 0.075853 0.618652
vt 0.155534 0.661416
vt 0.044837 0.713207
vt 0.150440 0.232276
vt 0.256358 0.133244
vt 0.240313 0.222242
vt 0.156846 0.132969
vt 0.646888 0.084776
vt 0.773804 0.154913
vt 0.684201 0.167153
vt 0.743318 0.060183
vt 0.842292 0.759682
vt 0.743257 0.760191
vt 0.819179 0.672987
vt 0.941122 0.743342
vt 0.844199 0.868160
vt 0.736094 0.858967
vt 0.651147 0.830079
vt 0.713150 0.956475
vt 0.359082 0.905747
vt 0.327995 0.811716
vt 0.434391 0.856974
vt 0.405163 0.994692
vt 0.256503 0.941083
vt 0.231840 0.835428
vt 0.233064 0.745712
vt 0.132015 0.843738
vt 0.070851 0.491328
vt 0.150669 0.432708
vt 0.140506 0.547879
vt 0.000501 0.562634
vt 0.005548 0.404693
vt 0.098405 0.348590
vt 0.184105 0.322028
vt 0.059650 0.256221
vt 0.375907 0.089134
vt 0.456328 0.146933
vt 0.343649 0.172860
vt 0.286346 0.044264
vt 0.438125 0.000249
vt 0.520182 0.071228
vt 0.571926 0.144529
vt 0.596060 0.005825
vt 0.852697 0.254985
vt 0.822576 0.349330
vt 0.763100 0.250176
vt 0.867698 0.155940
vt 0.956457 0.286694
vt 0.914305 0.386668
vt 0.860581 0.458530
vt 0.999952 0.438624
vt 0.636994 0.742391
vt 0.537100 0.797838
vt 0.525729 0.706200
vt 0.732639 0.652972
vt 0.620032 0.628386
vt 0.704009 0.539528
vt 0.604436 0.520305
vt 0.513242 0.605562
vt 0.500166 0.500176
vt 0.794676 0.557031
vt 0.312087 0.705154
vt 0.228486 0.627285
vt 0.312125 0.588153
vt 0.426685 0.768486
vt 0.415270 0.653793
vt 0.403978 0.545178
vt 0.247099 0.384648
vt 0.295319 0.281075
vt 0.358383 0.348527
vt 0.222281 0.513206
vt 0.327832 0.466907
vt 0.427641 0.422603
vt 0.531836 0.223792
vt 0.645244 0.237648
vt 0.600580 0.318470
vt 0.401898 0.239918
vt 0.478550 0.325996
vt 0.551530 0.407229
vt 0.772810 0.444893
vt 0.717322 0.326296
vt 0.659142 0.425795
vt 0.999952 0.517595
vt 0.970519 0.670046
vt 0.638043 0.980880
vt 0.483956 1.000000
vt 0.085596 0.779849
vt 0.019799 0.639211
vt 0.106065 0.192330
vt 0.219481 0.086286
vt 0.671169 0.030227
vt 0.807071 0.105331
vt 0.894941 0.807759
vt 0.780525 0.914727
vt 0.329628 0.970676
vt 0.192539 0.894915
vt 0.000000 0.483379
vt 0.029686 0.329596
vt 0.361571 0.019292
vt 0.517012 0.000000
vt 0.914692 0.219769
vt 0.981068 0.361644
vn 0.838832 -0.133915 0.527604
vn 0.838832 0.126682 0.529405
vn 0.720939 -0.004730 0.692953
vn 0.885678 -0.003174 0.464248
vn 0.135716 0.833766 0.535112
vn 0.223365 0.680044 0.698294
vn 0.383618 0.753227 0.534257
vn 0.274087 0.838557 0.470779
vn -0.600818 0.594440 0.534410
vn -0.754021 0.383587 0.533158
vn -0.581683 0.418470 0.697501
vn -0.715476 0.517045 0.469802
vn -0.754021 -0.390851 0.527848
vn -0.600818 -0.601703 0.526200
vn -0.581683 -0.427992 0.691702
vn -0.715476 -0.523423 0.462691
vn 0.135716 -0.841029 0.523667
vn 0.383618 -0.760491 0.523881
vn 0.223365 -0.689535 0.688894
vn 0.274087 -0.844935 0.459243
vn 0.745537 0.371685 0.553148
vn 0.521805 0.373180 0.767083
vn 0.637715 0.185858 0.747490
vn 0.845851 0.267830 0.461226
vn 0.716117 0.516648 0.469222
vn 0.587970 0.588580 0.554826
vn 0.379315 0.541490 0.750237
vn 0.519486 0.717002 0.464705
vn -0.126255 0.820612 0.557298
vn -0.197974 0.607044 0.769585
vn 0.016083 0.659505 0.751518
vn 0.004059 0.884487 0.466506
vn -0.272713 0.837947 0.472671
vn -0.381207 0.737785 0.557054
vn -0.401990 0.523667 0.751091
vn -0.524003 0.712912 0.465987
vn -0.822626 0.130222 0.553453
vn -0.642842 -0.005219 0.765954
vn -0.626484 0.214667 0.749260
vn -0.842555 0.274422 0.463393
vn -0.883877 -0.003174 0.467666
vn -0.822626 -0.137791 0.551622
vn -0.626484 -0.224891 0.746239
vn -0.842555 -0.280770 0.459578
vn -0.381207 -0.745354 0.546892
vn -0.197974 -0.617512 0.761193
vn -0.401990 -0.533891 0.743858
vn -0.524003 -0.719230 0.456191
vn -0.272713 -0.844356 0.461135
vn -0.126255 -0.828181 0.546007
vn 0.016083 -0.669729 0.742393
vn 0.004059 -0.890805 0.454360
vn 0.587970 -0.596118 0.546709
vn 0.521805 -0.383648 0.761895
vn 0.379315 -0.551714 0.742759
vn 0.519486 -0.723319 0.454848
vn 0.716117 -0.523057 0.462111
vn 0.745537 -0.379254 0.547990
vn 0.637715 -0.196081 0.744865
vn 0.845851 -0.274117 0.457534
vn 0.287698 0.320658 0.902432
vn 0.155553 0.469466 0.869106
vn 0.094302 0.280068 0.955321
vn 0.400494 0.165380 0.901212
vn 0.208106 0.143712 0.967467
vn 0.302561 -0.006500 0.953093
vn 0.137761 -0.006775 0.990417
vn 0.043397 0.123051 0.991424
vn 0.001221 -0.006836 0.999969
vn 0.500961 -0.005921 0.865444
vn -0.221137 0.367351 0.903378
vn -0.403333 0.287881 0.868557
vn -0.242622 0.170598 0.954985
vn -0.038606 0.426679 0.903562
vn -0.077822 0.236610 0.968474
vn -0.109195 0.073458 0.991272
vn -0.422834 -0.102115 0.900418
vn -0.403333 -0.299753 0.864528
vn -0.242622 -0.183660 0.952544
vn -0.422834 0.089785 0.901730
vn -0.254555 -0.006623 0.967009
vn -0.109195 -0.087008 0.990173
vn -0.038606 -0.439009 0.897641
vn 0.155553 -0.481338 0.862606
vn 0.094302 -0.293130 0.951384
vn -0.221137 -0.379711 0.898251
vn -0.077822 -0.249855 0.965148
vn 0.043397 -0.136601 0.989654
vn 0.400494 -0.177709 0.898862
vn 0.287698 -0.332987 0.897946
vn 0.208106 -0.156926 0.965423
vn 0.900571 -0.145360 0.409650
vn 0.900571 0.139714 0.411603
vn 0.414228 0.809107 0.416791
vn 0.143040 0.897214 0.417737
vn -0.643849 0.641530 0.416974
vn -0.811426 0.410871 0.415601
vn -0.811426 -0.416517 0.409925
vn -0.643849 -0.647175 0.408124
vn 0.143040 -0.902860 0.405408
vn 0.414228 -0.814753 0.405683
vn 0.809015 0.409070 0.422010
vn 0.642140 0.638752 0.423811
vn -0.141423 0.893338 0.426527
vn -0.411420 0.805597 0.426252
vn -0.895718 0.139042 0.422285
vn -0.895718 -0.144810 0.420362
vn -0.411420 -0.811365 0.415174
vn -0.141423 -0.899075 0.414228
vn 0.642140 -0.644490 0.415021
vn 0.809015 -0.414808 0.416364
usemtl None_sun.png
s 1
f 27/1/1 28/2/2 5/3/3
f 28/2/2 27/1/1 57/4/4
f 30/5/5 1/6/6 29/7/7
f 30/5/5 29/7/7 58/8/8
f 31/9/9 32/10/10 2/11/11
f 32/10/10 31/9/9 59/12/12
f 33/13/13 34/14/14 3/15/15
f 34/14/14 33/13/13 60/16/16
f 35/17/17 36/18/18 4/19/19
f 36/18/18 35/17/17 61/20/20
f 62/21/21 17/22/22 38/23/23
f 38/23/23 28/2/2 62/21/21
f 8/24/24 62/21/21 28/2/2
f 28/2/2 38/23/23 5/3/3
f 63/25/25 64/26/26 62/21/21
f 17/22/22 62/21/21 64/26/26
f 29/7/7 1/6/6 37/27/27
f 37/27/27 64/26/26 29/7/7
f 9/28/28 29/7/7 64/26/26
f 64/26/26 37/27/27 17/22/22
f 65/29/29 18/30/30 39/31/31
f 39/31/31 30/5/5 65/29/29
f 10/32/32 65/29/29 30/5/5
f 39/31/31 1/6/6 30/5/5
f 66/33/33 67/34/34 65/29/29
f 18/30/30 65/29/29 67/34/34
f 31/9/9 2/11/11 40/35/35
f 40/35/35 67/34/34 31/9/9
f 11/36/36 31/9/9 67/34/34
f 67/34/34 40/35/35 18/30/30
f 68/37/37 19/38/38 41/39/39
f 41/39/39 32/10/10 68/37/37
f 12/40/40 68/37/37 32/10/10
f 32/10/10 41/39/39 2/11/11
f 69/41/41 70/42/42 68/37/37
f 19/38/38 68/37/37 70/42/42
f 33/13/13 3/15/15 42/43/43
f 42/43/43 70/42/42 33/13/13
f 13/44/44 33/13/13 70/42/42
f 70/42/42 42/43/43 19/38/38
f 71/45/45 20/46/46 43/47/47
f 43/47/47 34/14/14 71/45/45
f 14/48/48 71/45/45 34/14/14
f 34/14/14 43/47/47 3/15/15
f 72/49/49 73/50/50 71/45/45
f 20/46/46 71/45/45 73/50/50
f 35/17/17 4/19/19 44/51/51
f 44/51/51 73/50/50 35/17/17
f 15/52/52 35/17/17 73/50/50
f 73/50/50 44/51/51 20/46/46
f 74/53/53 21/54/54 45/55/55
f 45/55/55 36/18/18 74/53/53
f 16/56/56 74/53/53 36/18/18
f 36/18/18 45/55/55 4/19/19
f 75/57/57 76/58/58 74/53/53
f 21/54/54 74/53/53 76/58/58
f 27/1/1 5/3/3 46/59/59
f 46/59/59 76/58/58 27/1/1
f 7/60/60 27/1/1 76/58/58
f 76/58/58 46/59/59 21/54/54
f 77/61/61 49/62/62 23/63/63
f 49/62/62 77/61/61 37/27/27
f 17/22/22 37/27/27 77/61/61
f 37/27/27 1/6/6 49/62/62
f 77/61/61 78/64/64 17/22/22
f 78/64/64 77/61/61 79/65/65
f 23/63/63 79/65/65 77/61/61
f 79/65/65 22/66/66 78/64/64
f 48/67/67 50/68/68 6/69/69
f 50/68/68 48/67/67 79/65/65
f 22/66/66 79/65/65 48/67/67
f 79/65/65 23/63/63 50/68/68
f 47/70/70 78/64/64 22/66/66
f 78/64/64 47/70/70 38/23/23
f 5/3/3 38/23/23 47/70/70
f 38/23/23 17/22/22 78/64/64
f 80/71/71 51/72/72 24/73/73
f 51/72/72 80/71/71 40/35/35
f 18/30/30 40/35/35 80/71/71
f 40/35/35 2/11/11 51/72/72
f 80/71/71 81/74/74 18/30/30
f 81/74/74 80/71/71 82/75/75
f 24/73/73 82/75/75 80/71/71
f 82/75/75 23/63/63 81/74/74
f 50/68/68 52/76/76 6/69/69
f 52/76/76 50/68/68 82/75/75
f 23/63/63 82/75/75 50/68/68
f 82/75/75 24/73/73 52/76/76
f 49/62/62 81/74/74 23/63/63
f 81/74/74 49/62/62 39/31/31
f 1/6/6 39/31/31 49/62/62
f 39/31/31 18/30/30 81/74/74
f 83/77/77 53/78/78 25/79/79
f 53/78/78 83/77/77 42/43/43
f 19/38/38 42/43/43 83/77/77
f 42/43/43 3/15/15 53/78/78
f 83/77/77 84/80/80 19/38/38
f 84/80/80 83/77/77 85/81/81
f 25/79/79 85/81/81 83/77/77
f 85/81/81 24/73/73 84/80/80
f 52/76/76 54/82/82 6/69/69
f 54/82/82 52/76/76 85/81/81
f 24/73/73 85/81/81 52/76/76
f 85/81/81 25/79/79 54/82/82
f 51/72/72 84/80/80 24/73/73
f 84/80/80 51/72/72 41/39/39
f 2/11/11 41/39/39 51/72/72
f 41/39/39 19/38/38 84/80/80
f 86/83/83 55/84/84 26/85/85
f 55/84/84 86/83/83 44/51/51
f 20/46/46 44/51/51 86/83/83
f 44/51/51 4/19/19 55/84/84
f 86/83/83 87/86/86 20/46/46
f 87/86/86 86/83/83 88/87/87
f 26/85/85 88/87/87 86/83/83
f 88/87/87 25/79/79 87/86/86
f 54/82/82 56/88/88 6/69/69
f 56/88/88 54/82/82 88/87/87
f 25/79/79 88/87/87 54/82/82
f 88/87/87 26/85/85 56/88/88
f 53/78/78 87/86/86 25/79/79
f 87/86/86 53/78/78 43/47/47
f 3/15/15 43/47/47 53/78/78
f 43/47/47 20/46/46 87/86/86
f 89/89/89 47/70/70 22/66/66
f 47/70/70 89/89/89 46/59/59
f 21/54/54 46/59/59 89/89/89
f 46/59/59 5/3/3 47/70/70
f 89/89/89 90/90/90 21/54/54
f 90/90/90 89/89/89 91/91/91
f 22/66/66 91/91/91 89/89/89
f 91/91/91 26/85/85 90/90/90
f 56/88/88 48/67/67 6/69/69
f 48/67/67 56/88/88 91/91/91
f 26/85/85 91/91/91 56/88/88
f 91/91/91 22/66/66 48/67/67
f 55/84/84 90/90/90 26/85/85
f 90/90/90 55/84/84 45/55/55
f 4/19/19 45/55/55 55/84/84
f 45/55/55 21/54/54 90/90/90
f 7/60/60 92/92/92 27/1/1
f 92/92/92 57/4/4 27/1/1
f 57/4/4 93/93/93 28/2/2
f 93/93/93 8/24/24 28/2/2
f 9/28/28 94/94/94 29/7/7
f 94/94/94 58/8/8 29/7/7
f 58/8/8 95/95/95 30/5/5
f 95/95/95 10/32/32 30/5/5
f 11/36/36 96/96/96 31/9/9
f 96/96/96 59/12/12 31/9/9
f 59/12/12 97/97/97 32/10/10
f 97/97/97 12/40/40 32/10/10
f 13/44/44 98/98/98 33/13/13
f 98/98/98 60/16/16 33/13/13
f 60/16/16 99/99/99 34/14/14
f 99/99/99 14/48/48 34/14/14
f 15/52/52 100/100/100 35/17/17
f 100/100/100 61/20/20 35/17/17
f 61/20/20 101/101/101 36/18/18
f 101/101/101 16/56/56 36/18/18
f 8/24/24 102/102/102 62/21/21
f 102/102/102 63/25/25 62/21/21
f 63/25/25 103/103/103 64/26/26
f 103/103/103 9/28/28 64/26/26
f 10/32/32 104/104/104 65/29/29
f 104/104/104 66/33/33 65/29/29
f 66/33/33 105/105/105 67/34/34
f 105/105/105 11/36/36 67/34/34
f 12/40/40 106/106/106 68/37/37
f 106/106/106 69/41/41 68/37/37
f 69/41/41 107/107/107 70/42/42
f 107/107/107 13/44/44 70/42/42
f 14/48/48 108/108/108 71/45/45
f 108/108/108 72/49/49 71/45/45
f 72/49/49 109/109/109 73/50/50
f 109/109/109 15/52/52 73/50/50
f 16/56/56 111/110/110 74/53/53
f 111/110/110 75/57/57 74/53/53
f 75/57/57 110/111/111 76/58/58
f 110/111/111 7/60/60 76/58/58
